<svg width="42" height="42" viewBox="0 0 42 42" fill="none" xmlns="http://www.w3.org/2000/svg">
<path d="M21 7.23531e-08C16.8466 7.23531e-08 12.7865 1.23163 9.33303 3.53914C5.8796 5.84665 3.18798 9.1264 1.59854 12.9636C0.00909896 16.8009 -0.406771 21.0233 0.403518 25.0969C1.21381 29.1705 3.21386 32.9123 6.15077 35.8492C9.08767 38.7861 12.8295 40.7862 16.9031 41.5965C20.9767 42.4068 25.1991 41.9909 29.0364 40.4015C32.8736 38.812 36.1533 36.1204 38.4609 32.667C40.7684 29.2135 42 25.1534 42 21C42.0002 18.2422 41.4572 15.5113 40.4019 12.9634C39.3467 10.4154 37.7998 8.10032 35.8498 6.15025C33.8997 4.20017 31.5846 2.65333 29.0366 1.59806C26.4887 0.542796 23.7578 -0.000228855 21 7.23531e-08ZM27.677 31.8202C27.5984 32.0162 27.4788 32.1931 27.3262 32.3391C27.1736 32.4851 26.9916 32.5968 26.7924 32.6667C26.5931 32.7366 26.3812 32.7631 26.1708 32.7444C25.9605 32.7257 25.7566 32.6623 25.5728 32.5583L19.872 28.1286L16.2131 31.5042C16.1282 31.5669 16.0289 31.6073 15.9243 31.6216C15.8197 31.6359 15.7132 31.6236 15.6146 31.586L16.316 25.3102L16.3384 25.328L16.3528 25.2041C16.3528 25.2041 26.6113 15.8643 27.0292 15.4664C27.4523 15.0695 27.3127 14.9834 27.3127 14.9834C27.3368 14.4993 26.5535 14.9834 26.5535 14.9834L12.9612 23.7279L7.30068 21.8001C7.30068 21.8001 6.43128 21.4882 6.34938 20.8026C6.26328 20.1222 7.32901 19.7526 7.32901 19.7526L29.8347 10.8118C29.8347 10.8118 31.6848 9.98753 31.6848 11.3526L27.677 31.8202Z" fill="#039BE5"/>
</svg>
